# Blender v3.0.1 OBJ File: ''
# www.blender.org
o Cube.003
v 7.414817 14.852986 -7.414811
v -7.414817 14.852986 -7.414811
v -7.414817 14.852983 7.414824
v 7.414817 14.852983 7.414824
v -7.414817 0.023348 7.414817
v -7.414817 0.023358 -7.414817
v 7.414817 0.023358 -7.414817
v 7.414817 0.023348 7.414817
v 7.414817 14.852986 -7.414811
v 7.414817 14.852983 7.414824
v -7.414817 14.852983 7.414824
v -7.414817 14.852986 -7.414811
v -7.414817 0.023348 7.414817
v -7.414817 0.023358 -7.414817
v 7.414817 0.023348 7.414817
v 7.414817 0.023358 -7.414817
vt 0.500000 0.000000
vt 0.500000 0.250000
vt 0.250000 0.250000
vt 0.250000 0.000000
vt 0.500000 0.250000
vt 0.750000 0.250000
vt 0.750000 0.500000
vt 0.500000 0.500000
vt 0.000000 0.250000
vt 0.250000 0.250000
vt 0.250000 0.500000
vt 0.000000 0.500000
vt 0.500000 0.250000
vt 0.500000 0.500000
vt 0.250000 0.500000
vt 0.250000 0.250000
vt 0.750000 0.000000
vt 1.000000 0.000000
vt 1.000000 0.250000
vt 0.750000 0.250000
vt 0.750000 0.250000
vt 0.500000 0.250000
vt 0.500000 0.000000
vt 0.750000 0.000000
vt 0.000000 0.500000
vt 0.250000 0.500000
vt 0.250000 0.750000
vt 0.000000 0.750000
vt 0.250000 0.000000
vt 0.250000 0.250000
vt 0.000000 0.250000
vt 0.000000 0.000000
vt 0.250000 0.750000
vt 0.250000 0.500000
vt 0.500000 0.500000
vt 0.500000 0.750000
vt 0.500000 0.750000
vt 0.500000 0.500000
vt 0.750000 0.500000
vt 0.750000 0.750000
vt 0.500000 0.250000
vt 0.500000 0.250000
vt 0.500000 0.250000
vt 0.500000 0.250000
vt 0.500000 0.250000
vt 0.500000 0.250000
vn 0.0000 1.0000 0.0000
vn -1.0000 -0.0000 0.0000
vn 0.0000 -1.0000 -0.0000
vn 1.0000 0.0000 0.0000
vn 0.0000 0.0000 -1.0000
vn 0.0000 -0.0000 1.0000
s 1
f 1/1/1 2/2/1 3/3/1 4/4/1
f 5/5/2 3/6/2 2/7/2 6/8/2
f 6/9/3 7/10/3 8/11/3 5/12/3
f 7/13/4 1/14/4 4/15/4 8/16/4
f 6/17/5 2/18/5 1/19/5 7/20/5
f 9/21/3 10/22/3 11/23/3 12/24/3
f 13/25/4 14/26/4 12/27/4 11/28/4
f 14/29/1 13/30/1 15/31/1 16/32/1
f 16/33/2 15/34/2 10/35/2 9/36/2
f 14/37/6 16/38/6 9/39/6 12/40/6
f 8/41/6 15/42/6 13/43/6 5/5/6
f 4/44/6 10/22/6 15/42/6 8/41/6
f 5/5/6 13/43/6 11/45/6 3/46/6
f 3/46/6 11/45/6 10/22/6 4/44/6
